<?xml version="1.0" encoding="utf-8"?>
<!-- Generator: Adobe Illustrator 24.3.0, SVG Export Plug-In . SVG Version: 6.00 Build 0)  -->
<svg version="1.1" id="wordmark" xmlns="http://www.w3.org/2000/svg" xmlns:xlink="http://www.w3.org/1999/xlink" x="0px" y="0px"
	 viewBox="0 0 1000 300" style="enable-background:new 0 0 1000 300;" xml:space="preserve">
<style type="text/css">
	.st0{fill:#2C2C54;}
	.st1{fill:#008FFB;}
	.st2{fill:#FF4560;}
	.st3{fill:#FEB019;}
</style>
<g id="r2_1_">
	<path class="st0" d="M993,94.9c-8.8-8.4-18.4-12.6-28.8-12.6c-12.3,0-25.1,5.6-38.5,16.9c-13.4,11.2-26.1,27.5-38.3,48.8l-9.2,101
		l0,0l2.6-19.1c2.3-16,7-30.7,14.3-44s15.9-23.7,25.9-31.3s19.9-11.4,29.8-11.4c7.1,0,13.8,2.1,20,6.3c1.8,1.2,3.6,1.8,5.5,1.8
		c6.2,0,12.3-6.7,18.5-20.2c3.5-7.5,5.3-14.1,5.3-19.8C1000,104.9,997.7,99.4,993,94.9z"/>
	<path class="st1" d="M893.8,101.4c0.2-2.4,0.4-4,0.4-4.7c0-3.3-0.8-5.7-2.5-7.2c-1.6-1.5-4.2-2.2-7.7-2.2h-45.9
		c-3,0-5.4,0.6-7.2,1.9s-3.4,3.6-4.7,6.9s-2.4,8.1-3.3,14.4c-0.8,4.6-1.1,8.5-1.1,11.7c0,4.3,0.8,7.3,2.3,8.9s4,2.4,7.3,2.4h18.3
		L828.1,281c-0.3,2.4-0.4,4-0.4,4.7c0,3.3,0.8,5.7,2.4,7.2c1.6,1.5,4.2,2.2,7.7,2.2H861c4.3,0,7.5-1.1,9.6-3.3
		c2.1-2.2,3.6-5.8,4.3-10.9L889.1,134L893.8,101.4z"/>
</g>
<g id="k_1_">
	<path class="st0" d="M800.3,89.7c-1.6-1.6-4-2.5-7.4-2.5H715c-4.4,0-7.7,1.4-9.9,4.3c-2.2,2.8-3.9,8.4-5,16.6
		c-0.6,4.2-0.9,7.4-0.9,9.7c0,4.2,0.8,7.1,2.3,8.7s4,2.4,7.5,2.4h8.1l-54.4,45.9l-9,60.7l1.3-1.1c2.9-2.5,6.1-4.5,9.7-5.7
		c3.6-1.3,7.1-1.9,10.6-1.9c6.5,0,12,2.1,16.4,6.3c2.9,2.7,5.3,5.9,7.2,9.6c1.9,3.7,4.2,9,7,15.9c2.4,6,4.5,11,6.5,15.1
		c1.9,4.1,4.4,7.7,7.2,11c6,7,13.3,10.6,21.8,10.6h22c3,0,5.4-0.6,7.2-1.8c1.8-1.2,3.4-3.5,4.6-6.8c1.3-3.3,2.3-8.1,3.2-14.4
		c0.8-4.9,1.1-8.9,1.1-11.9c0-4.3-0.8-7.3-2.3-8.9c-1.5-1.6-3.9-2.4-7.1-2.4h-5.5c-5.1,0-9.2-2-12.2-6.1c-1-1.2-2-2.7-2.9-4.6
		c-0.9-1.9-1.9-4.1-2.9-6.5c-1-2.5-1.6-4-1.9-4.6c-2.6-6.7-5.2-12.4-7.6-16.9c-2.5-4.5-5.9-8.3-10.3-11.5
		c-5.3-3.9-11.1-5.8-17.5-5.8c-2.6,0-5.6,0.4-9,1.1l81-65.2h5.6c4.4,0,7.7-1.4,9.9-4.3c2.2-2.8,3.9-8.3,5-16.4
		c0.6-4.2,0.9-7.4,0.9-9.7C802.6,94.3,801.8,91.4,800.3,89.7z"/>
	<path class="st2" d="M681.9,14.2c0.2-2.4,0.4-4,0.4-4.7c0-3.3-0.8-5.7-2.5-7.2c-1.6-1.5-4.2-2.2-7.7-2.2h-45.9
		c-3,0-5.4,0.6-7.2,1.9s-3.4,3.6-4.7,6.9s-2.4,8.1-3.3,14.4c-0.8,4.6-1.1,8.5-1.1,11.7c0,4.3,0.8,7.3,2.3,8.9s4,2.4,7.3,2.4h18.3
		l-34.2,234.8c-0.3,2.4-0.4,4-0.4,4.7c0,3.3,0.8,5.7,2.4,7.2c1.6,1.5,4.2,2.2,7.7,2.2h23.3c4.3,0,7.5-1.1,9.6-3.3
		c2.1-2.2,3.6-5.8,4.3-10.9l26.7-234.1L681.9,14.2z"/>
</g>
<g id="n_1_">
	<path class="st0" d="M584.8,251.3c-1.5-1.6-3.9-2.4-7.2-2.4h-14.5l13-88.8c0.9-6.6,1.3-12.2,1.3-16.9c0-12-2-22.6-5.9-31.8
		c-4-9.2-9.6-16.4-16.9-21.5c-7.3-5.1-15.9-7.6-25.8-7.6c-12.1,0-23.7,4.2-34.8,12.5s-22.1,21.4-32.9,39.2L447,280.9l8.8-61.8
		c2-13.9,6-27.5,12-40.8s12.8-24.1,20.6-32.4c7.8-8.3,15.3-12.5,22.6-12.5c6.3,0,10.8,1.9,13.6,5.6c2.8,3.8,4.2,9.2,4.2,16.4
		c0,4.1-0.4,8.5-1.1,13.5l-16.4,112c-0.3,2.4-0.4,4-0.4,4.7c0,3.3,0.8,5.7,2.4,7.2c1.6,1.5,4.2,2.2,7.7,2.2h49.7
		c3,0,5.4-0.6,7.2-1.8c1.8-1.2,3.4-3.5,4.6-6.8c1.3-3.3,2.3-8.1,3.2-14.4c0.8-4.9,1.1-8.9,1.1-11.9
		C587,255.8,586.3,252.9,584.8,251.3z"/>
	<path class="st3" d="M467.4,101.4c0.2-2.4,0.4-4,0.4-4.7c0-3.3-0.8-5.7-2.5-7.2c-1.6-1.5-4.2-2.2-7.7-2.2h-45.9
		c-3,0-5.4,0.6-7.2,1.9c-1.8,1.3-3.4,3.6-4.7,6.9c-1.3,3.3-2.4,8.1-3.3,14.4c-0.8,4.6-1.1,8.5-1.1,11.7c0,4.3,0.8,7.3,2.3,8.9
		c1.5,1.6,4,2.4,7.3,2.4h18.3L401.7,281c-0.3,2.4-0.4,4-0.4,4.7c0,3.3,0.8,5.7,2.4,7.2s4.2,2.2,7.7,2.2h23.3c4.3,0,7.5-1.1,9.6-3.3
		c2.1-2.2,3.6-5.8,4.3-10.9L462.7,134L467.4,101.4z"/>
</g>
<path id="a_1_" class="st0" d="M379.6,246.9c1.4,1.6,2.2,4.8,2.2,9.4c0,3.5-0.4,7.9-1.1,13.3c-1.4,10-3.2,16.8-5.5,20.2
	c-2.3,3.5-5.6,5.2-10.2,5.2h-4.5c-10.5,0-19.5-2.4-26.7-7.3c-7.3-4.9-12.4-12.4-15.2-22.6C299.8,288.4,276.9,300,250,300
	c-13.6,0-25.4-3.8-35.6-11.5c-10.2-7.6-18-18.3-23.5-31.9s-8.3-29.3-8.3-47c0-20.1,3.6-39.9,10.9-59.5c7.3-19.6,18.1-35.8,32.6-48.6
	c14.4-12.8,31.8-19.2,52.1-19.2c11.4,0,21.7,3.3,31,10c9.2,6.7,16.2,15.6,20.8,26.9l2.4-17.8c0.6-5.1,2-8.7,4.2-10.9
	c2.2-2.2,5.4-3.3,9.7-3.3H364c3.5,0,6.1,0.8,7.7,2.2c1.6,1.5,2.4,3.9,2.4,7.2c0,0.8-0.1,2.3-0.4,4.7l-16.9,114.9
	c-0.5,3.1-0.8,6.3-0.8,9.4c0,12.4,5.1,18.7,15.4,18.7h0.9C375.8,244.5,378.1,245.3,379.6,246.9z M291.4,238.2
	c8-7,14.1-16.1,18.4-27.1c4.2-11,6.3-22.1,6.3-33.4c0-13.8-3.3-24.6-10-32.4c-6.7-7.8-15.2-11.7-25.8-11.7
	c-10.7,0-19.6,3.8-26.7,11.5c-7.2,7.6-12.4,17.1-15.8,28.4c-3.4,11.3-5.1,22.5-5.1,33.6c0,12.7,2.7,22.9,8,30.4s12.9,11.2,22.7,11.2
	C274,248.7,283.3,245.2,291.4,238.2z"/>
<g id="r1_1_">
	<path class="st0" d="M171.3,94.9c-8.8-8.4-18.4-12.6-28.8-12.6c-12.3,0-25.1,5.6-38.5,16.9c-13.4,11.2-26.1,27.5-38.3,48.8
		l-9.2,101l0,0l2.6-19.1c2.3-16,7-30.7,14.3-44s15.9-23.7,25.9-31.3s19.9-11.4,29.8-11.4c7.1,0,13.8,2.1,20,6.3
		c1.8,1.2,3.6,1.8,5.5,1.8c6.2,0,12.3-6.7,18.5-20.2c3.5-7.5,5.3-14.1,5.3-19.8C178.3,104.9,176,99.4,171.3,94.9z"/>
	<path class="st0" d="M72.1,101.4c0.2-2.4,0.4-4,0.4-4.7c0-3.3-0.8-5.7-2.5-7.2c-1.6-1.5-4.2-2.2-7.7-2.2H16.4c-3,0-5.4,0.6-7.2,1.9
		s-3.4,3.6-4.7,6.9s-2.4,8.1-3.3,14.4C0.4,115.1,0,119,0,122.1c0,4.3,0.8,7.3,2.3,8.9s4,2.4,7.3,2.4h18.3L6.2,280.9
		c-0.3,2.4-0.4,4-0.4,4.7c0,3.3,0.8,5.7,2.4,7.2s4.2,2.2,7.7,2.2h23.3c4.3,0,7.5-1.1,9.6-3.3c2.1-2.2,3.6-5.8,4.3-10.9L67.4,134
		L72.1,101.4z"/>
</g>
</svg>
