<?xml version="1.0" encoding="utf-8"?>
<!-- Generator: Adobe Illustrator 24.3.0, SVG Export Plug-In . SVG Version: 6.00 Build 0)  -->
<svg version="1.1" id="disabled" xmlns="http://www.w3.org/2000/svg" xmlns:xlink="http://www.w3.org/1999/xlink" x="0px" y="0px"
	 viewBox="0 0 32 32" style="enable-background:new 0 0 32 32;" xml:space="preserve">
<style type="text/css">
	.st0{fill:#ABB4C4;}
	.st1{fill:#FFFFFF;}
</style>
<path class="st0" d="M26,32H6c-3.3,0-6-2.7-6-6V6c0-3.3,2.7-6,6-6h20c3.3,0,6,2.7,6,6v20C32,29.3,29.3,32,26,32z"/>
<path class="st1" d="M24.9,24.2v-3.3l3.3,1.7L24.9,24.2z"/>
<path class="st1" d="M20.6,26.3V23l3.3,1.7L20.6,26.3z"/>
<path class="st1" d="M16.3,28.5v-3.3l3.3,1.7L16.3,28.5z"/>
<path class="st1" d="M15.7,28.5l-3.3-1.7l3.3-1.7V28.5z"/>
<path class="st1" d="M11.4,23v3.3l-3.3-1.7L11.4,23z"/>
<path class="st1" d="M7.1,20.8v3.3l-3.3-1.7L7.1,20.8z"/>
<path class="st1" d="M7.1,7.8v3.3L3.8,9.5L7.1,7.8z"/>
<path class="st1" d="M11.4,5.7V9L8.1,7.3L11.4,5.7z"/>
<path class="st1" d="M15.7,3.5v3.3l-3.3-1.7L15.7,3.5z"/>
<path class="st1" d="M19.6,5.2l-3.3,1.7V3.5l0,0L19.6,5.2z"/>
<path class="st1" d="M20.6,9V5.7l3.3,1.7L20.6,9z"/>
<path class="st1" d="M25.2,16l3.3-1.7v3.3l-0.1-0.1L25.2,16z"/>
<path class="st1" d="M24.2,20.8v3.3l-3.3-1.7L24.2,20.8z"/>
<path class="st1" d="M19.9,26.3l-3.3-1.7l3.3-1.7V26.3z"/>
<path class="st1" d="M12.1,23l3.3,1.7l-3.3,1.7V23z"/>
<path class="st1" d="M7.8,20.8l3.3,1.7l-3.3,1.7V20.8z"/>
<path class="st1" d="M3.5,17.7v-3.3L6.8,16l-0.5,0.2L3.5,17.7z"/>
<path class="st1" d="M7.8,7.8l3.3,1.7l-3.3,1.7V7.8z"/>
<path class="st1" d="M20.9,18.2l0.1-0.1l3.2-1.6v3.3L20.9,18.2z"/>
<path class="st1" d="M7.1,15.5l-3.3-1.7l3.3-1.7V15.5z"/>
<path class="st1" d="M12.1,9V5.7l3.3,1.7L12.1,9z"/>
<path class="st1" d="M19.6,9.5l-3.3,1.7V7.8L19,9.2L19.6,9.5z"/>
<path class="st1" d="M19.9,9l-1.1-0.6l-2.2-1.1l3.3-1.7C19.9,5.6,19.9,9,19.9,9z"/>
<path class="st1" d="M24.9,12.2l3.3,1.7l-3.3,1.7V12.2z"/>
<path class="st1" d="M20.6,17.7v-3.3l3.3,1.7L20.6,17.7L20.6,17.7z"/>
<path class="st1" d="M20.6,18.7l3.3,1.7L20.6,22V18.7z"/>
<path class="st1" d="M19.9,22l-3.3-1.7l3.3-1.7V22z"/>
<path class="st1" d="M11.4,18.7V22l-3.3-1.7L11.4,18.7z"/>
<path class="st1" d="M7.8,16.5l2.1,1.1l1.2,0.6l-3.3,1.7L7.8,16.5L7.8,16.5z"/>
<path class="st1" d="M7.8,12.2l3.3,1.7l-3.3,1.7V12.2z"/>
<path class="st1" d="M15.7,11.2l-3.3-1.7l3.3-1.7V11.2z"/>
<path class="st1" d="M20.9,13.8l3.3-1.7v3.3L20.9,13.8z"/>
<path class="st1" d="M19.9,17.7l-2.1-1L16.6,16l2.2-1.1l1.1-0.6C19.9,14.3,19.9,17.7,19.9,17.7z"/>
<path class="st1" d="M12.1,18.7l3.3,1.7L12.1,22V18.7z"/>
<path class="st1" d="M8.1,16l3.3-1.7v3.3l-2.7-1.3L8.1,16z"/>
<path class="st1" d="M12.1,13.3V10l3.3,1.7L12.1,13.3z"/>
<path class="st1" d="M8.1,11.7l3.3-1.7v3.3l-0.3-0.1L8.1,11.7z"/>
<path class="st1" d="M15.7,24.2l-3.3-1.7l3.3-1.7V24.2z"/>
<path class="st1" d="M19.6,22.5l-3.3,1.7v-3.3L19.6,22.5z"/>
<path class="st1" d="M5,17.5l2.1-1v3.3l-3.3-1.7L5,17.5z"/>
<path class="st1" d="M28.2,18.2l-3.3,1.7v-3.3L28.2,18.2L28.2,18.2z"/>
<path class="st1" d="M4,13.1l-0.5,0.3V10l3.3,1.7L4,13.1z"/>
<path class="st1" d="M6.8,20.3L3.5,22v-3.3L6.8,20.3z"/>
<path class="st1" d="M28.5,18.7V22l-3.3-1.7L28.5,18.7z"/>
</svg>
