<?xml version="1.0" encoding="utf-8"?>
<!-- Generator: Adobe Illustrator 24.3.0, SVG Export Plug-In . SVG Version: 6.00 Build 0)  -->
<svg version="1.1" id="Layer_1" xmlns="http://www.w3.org/2000/svg" xmlns:xlink="http://www.w3.org/1999/xlink" x="0px" y="0px"
	 viewBox="0 0 152.5 41.3" style="enable-background:new 0 0 152.5 41.3;" xml:space="preserve">
<style type="text/css">
	.st0{fill:#FFAD64;}
	.st1{fill:#ADD4D3;}
	.st2{fill:#FB8351;}
	.st3{fill-rule:evenodd;clip-rule:evenodd;fill:#333237;}
	.st4{fill:#333237;}
</style>
<path class="st0" d="M12.6,39.4l-4.2-7.2l6.1-10.6l3.9,6.7l23,0l-6.5,11.2L12.6,39.4z"/>
<path class="st1" d="M45.5,21.2l-4.2,7.2l-12.2,0l3.9-6.7L21.5,1.8l12.9,0.1L45.5,21.2z"/>
<path class="st2" d="M13.2,1.7h8.4l6.1,10.6l-7.8,0L8.4,32.2L2,21L13.2,1.7z"/>
<path class="st3" d="M22.6,0L22.6,0L12.2,0L0,21l8.4,14.7l0,0l3.2,5.5l24.3,0.1l8.5-14.6h-0.1l3.2-5.5l-12-21.1L22.6,0z M30.6,14
	L30.6,14l-6-10.5l8.9,0l10.1,17.7l-3.2,5.5l-8.3,0l2.9-5L30.6,14z M20.5,3.4l4.1,7.2l-5.7,0l-9.8,17l-0.7,1.2L4,21L14.2,3.4H20.5z
	 M16.5,21.6l4.4-7.6l5.7,0l4.4,7.6l-2.9,5l-8.7,0L16.5,21.6z M10.4,32.2l1.7-2.9l2.5-4.3l2.9,5l8.7,0l0,0l12.3,0l-4.5,7.7l-20.3-0.1
	L10.4,32.2z"/>
<path class="st4" d="M57.5,35.3v-8h-3v-0.9h7.1v0.9h-3v8H57.5z"/>
<path class="st4" d="M64.8,35.4c-1.2,0-2.1-0.3-2.6-0.8c-0.6-0.6-0.9-1.4-0.9-2.6c0-1.1,0.2-1.9,0.8-2.5c0.5-0.6,1.3-0.9,2.4-0.9
	c0.6,0,1.2,0.1,1.6,0.4c0.4,0.2,0.7,0.6,0.9,1c0.2,0.4,0.3,0.9,0.3,1.4v1.2h-4.9c0,0.5,0.1,0.9,0.3,1.2c0.2,0.3,0.5,0.5,0.8,0.6
	c0.4,0.1,0.9,0.2,1.5,0.2c0.7,0,1.3-0.1,1.9-0.3v0.9c-0.3,0.1-0.6,0.2-1,0.3C65.5,35.4,65.2,35.4,64.8,35.4z M62.4,31.7h3.9v-0.5
	c0-0.5-0.1-0.9-0.4-1.2c-0.3-0.3-0.7-0.4-1.4-0.4c-0.8,0-1.3,0.2-1.6,0.6C62.5,30.4,62.4,31,62.4,31.7z"/>
<path class="st4" d="M72.1,35.4c-1.1,0-2-0.3-2.6-0.9c-0.6-0.6-0.8-1.4-0.8-2.5c0-1.2,0.3-2,0.9-2.6c0.6-0.6,1.5-0.8,2.5-0.8
	c0.4,0,0.8,0,1.1,0.1c0.3,0.1,0.6,0.1,0.8,0.3v0.9c-0.5-0.2-1.1-0.4-1.7-0.4c-0.8,0-1.4,0.2-1.9,0.6c-0.4,0.4-0.7,1-0.7,1.9
	c0,0.9,0.2,1.5,0.6,1.9c0.4,0.4,1,0.6,1.9,0.6c0.6,0,1.2-0.1,1.8-0.4v0.9c-0.3,0.1-0.6,0.2-0.9,0.3C72.8,35.4,72.5,35.4,72.1,35.4z"
	/>
<path class="st4" d="M75.4,35.3v-9.4h1.1v3.5c0.3-0.2,0.7-0.5,1.1-0.6c0.4-0.2,0.9-0.2,1.4-0.2c0.8,0,1.4,0.2,1.8,0.6
	c0.4,0.4,0.6,1,0.6,1.8v4.3h-1.1V31c0-0.6-0.1-1-0.4-1.2c-0.2-0.2-0.7-0.3-1.3-0.3c-0.4,0-0.8,0.1-1.2,0.2c-0.4,0.2-0.7,0.4-1,0.6
	v4.9H75.4z"/>
<path class="st2" d="M85.9,35.4c-0.9,0-1.7-0.2-2.2-0.6c-0.6-0.4-0.8-1-0.8-1.6c0-0.6,0.2-1.2,0.6-1.6c0.4-0.5,0.9-0.9,1.6-1.2
	c-0.4-0.4-0.7-0.7-0.9-1s-0.4-0.7-0.4-1.1c0-0.6,0.2-1,0.6-1.4c0.4-0.4,0.9-0.6,1.6-0.6c0.7,0,1.2,0.2,1.6,0.5
	c0.4,0.4,0.6,0.8,0.6,1.4c0,0.5-0.1,0.9-0.4,1.3c-0.3,0.3-0.7,0.7-1.2,1l2.3,2.3c0.2-0.3,0.2-0.8,0.2-1.3v-0.2H90v0.2
	c0,0.4,0,0.7-0.1,1.1c-0.1,0.3-0.2,0.6-0.4,0.9l1.2,1.3l-0.7,0.6L89,34.3c-0.3,0.4-0.7,0.7-1.3,0.9C87.2,35.3,86.6,35.4,85.9,35.4z
	 M85.9,29.9c0.4-0.3,0.8-0.5,1-0.8c0.2-0.2,0.3-0.6,0.3-0.9c0-0.4-0.1-0.6-0.3-0.8c-0.2-0.2-0.5-0.3-0.9-0.3c-0.4,0-0.8,0.1-1,0.3
	c-0.2,0.2-0.3,0.5-0.3,0.8c0,0.3,0.1,0.6,0.3,0.8C85.2,29.3,85.5,29.6,85.9,29.9z M85.9,34.6c0.5,0,1-0.1,1.4-0.2
	c0.4-0.2,0.7-0.4,1-0.7L85.8,31c-0.6,0.3-1.1,0.6-1.3,0.9c-0.3,0.3-0.4,0.7-0.4,1.2c0,0.5,0.2,0.8,0.6,1.1
	C84.9,34.5,85.4,34.6,85.9,34.6z"/>
<path class="st2" d="M55,19.9V7.5h3.6v9.6h5.6v2.8H55z"/>
<path class="st2" d="M70,20c-1.8,0-3.2-0.4-4-1.2c-0.9-0.8-1.3-2-1.3-3.5c0-1.5,0.4-2.7,1.3-3.5c0.9-0.8,2.2-1.2,4-1.2
	c1.8,0,3.2,0.4,4,1.2c0.9,0.8,1.3,2,1.3,3.5c0,1.6-0.4,2.7-1.3,3.5C73.2,19.6,71.8,20,70,20z M70,17.4c0.6,0,1-0.2,1.3-0.5
	c0.3-0.3,0.4-0.9,0.4-1.6c0-0.7-0.1-1.3-0.4-1.6c-0.3-0.3-0.7-0.5-1.3-0.5c-0.6,0-1,0.2-1.2,0.5c-0.3,0.3-0.4,0.9-0.4,1.6
	c0,0.7,0.1,1.3,0.4,1.6C69,17.2,69.4,17.4,70,17.4z"/>
<path class="st2" d="M80.7,23.2c-0.4,0-0.9,0-1.5-0.1c-0.5,0-1-0.1-1.5-0.2c-0.5-0.1-0.8-0.2-1.2-0.3v-2.3c0.3,0.1,0.7,0.2,1.2,0.3
	c0.5,0.1,0.9,0.1,1.4,0.2c0.5,0,0.9,0.1,1.3,0.1c0.7,0,1.2,0,1.6-0.1c0.4-0.1,0.6-0.2,0.6-0.4c0-0.2-0.1-0.3-0.2-0.3
	c-0.1,0-0.4-0.1-0.7-0.1h-2.4c-0.9,0-1.7-0.1-2.2-0.4c-0.5-0.3-0.8-0.8-0.8-1.4c0-0.8,0.5-1.4,1.4-1.8c-0.5-0.3-0.9-0.6-1.2-1
	c-0.2-0.4-0.4-0.9-0.4-1.6c0-1.2,0.4-2,1.2-2.6c0.8-0.6,2-0.8,3.5-0.8c0.3,0,0.7,0,1.1,0.1c0.4,0,0.7,0.1,0.9,0.1h3.6l-0.1,2.2h-1.2
	c0.2,0.3,0.3,0.7,0.3,1.1c0,0.9-0.3,1.7-0.8,2.2c-0.5,0.5-1.4,0.8-2.6,0.8c-0.2,0-0.3,0-0.5,0c-0.2,0-0.4,0-0.5-0.1
	c-0.3,0-0.5,0.1-0.7,0.2s-0.3,0.2-0.3,0.4c0,0.1,0.1,0.2,0.2,0.3c0.1,0,0.3,0.1,0.5,0.1h2.1c0.9,0,1.7,0.2,2.2,0.7
	c0.5,0.4,0.8,1.1,0.8,1.9c0,0.9-0.4,1.6-1.2,2.1C83.8,23,82.5,23.2,80.7,23.2z M81,15.1c0.6,0,1-0.1,1.2-0.3c0.2-0.2,0.3-0.5,0.3-1
	c0-0.4-0.1-0.8-0.3-1c-0.2-0.2-0.6-0.3-1.2-0.3c-0.5,0-0.9,0.1-1.2,0.3c-0.2,0.2-0.3,0.5-0.3,1c0,0.4,0.1,0.8,0.3,1
	C80.1,15,80.5,15.1,81,15.1z"/>
<path class="st2" d="M92.4,20c-1.8,0-3.2-0.4-4-1.2c-0.9-0.8-1.3-2-1.3-3.5c0-1.5,0.4-2.7,1.3-3.5c0.9-0.8,2.2-1.2,4-1.2
	c1.8,0,3.2,0.4,4,1.2c0.9,0.8,1.3,2,1.3,3.5c0,1.6-0.4,2.7-1.3,3.5C95.6,19.6,94.2,20,92.4,20z M92.4,17.4c0.6,0,1-0.2,1.3-0.5
	c0.3-0.3,0.4-0.9,0.4-1.6c0-0.7-0.1-1.3-0.4-1.6c-0.3-0.3-0.7-0.5-1.3-0.5c-0.6,0-1,0.2-1.3,0.5c-0.3,0.3-0.4,0.9-0.4,1.6
	c0,0.7,0.1,1.3,0.4,1.6C91.4,17.2,91.8,17.4,92.4,17.4z"/>
<path class="st4" d="M99.4,9.5V6.9h3.9v2.6H99.4z M99.7,19.9v-6.5h-1.3l0.3-2.6h4.6v9.1H99.7z"/>
<path class="st4" d="M105,24V10.7h3.1l0.2,0.7c0.4-0.3,0.8-0.5,1.2-0.7c0.4-0.2,1-0.2,1.6-0.2c1.4,0,2.4,0.3,3.1,1
	c0.7,0.7,1.1,1.8,1.1,3.5c0,1.6-0.4,2.9-1.2,3.7c-0.8,0.8-1.9,1.3-3.2,1.3c-0.9,0-1.7-0.2-2.3-0.5V24H105z M110,17.4
	c0.5,0,0.9-0.2,1.2-0.6c0.3-0.4,0.4-0.9,0.4-1.7c0-0.8-0.1-1.3-0.4-1.5c-0.3-0.3-0.7-0.4-1.2-0.4c-0.5,0-1,0.2-1.4,0.5V17
	c0.2,0.2,0.4,0.3,0.6,0.3S109.7,17.4,110,17.4z"/>
<path class="st4" d="M120.1,20c-0.8,0-1.5-0.1-2.2-0.2c-0.7-0.1-1.2-0.2-1.6-0.4v-2.6c0.4,0.2,1,0.4,1.6,0.5
	c0.6,0.1,1.2,0.2,1.6,0.2c0.5,0,0.8,0,1,0c0.2,0,0.4-0.1,0.4-0.3c0-0.2-0.2-0.4-0.6-0.5c-0.4-0.1-1-0.3-1.6-0.5
	c-0.8-0.3-1.5-0.6-1.9-1c-0.4-0.4-0.6-1-0.6-1.7c0-0.9,0.4-1.6,1.1-2.1c0.7-0.5,1.8-0.8,3.4-0.8c0.6,0,1.2,0,1.8,0.1
	c0.6,0.1,1.1,0.2,1.5,0.3v2.5c-0.4-0.2-0.8-0.3-1.3-0.4c-0.4-0.1-0.9-0.1-1.2-0.1c-0.4,0-0.8,0-1.1,0.1c-0.3,0-0.5,0.1-0.5,0.3
	c0,0.2,0.2,0.4,0.5,0.4c0.4,0.1,0.9,0.2,1.5,0.4c0.7,0.2,1.2,0.4,1.6,0.7c0.4,0.2,0.7,0.5,0.8,0.9c0.2,0.3,0.2,0.8,0.2,1.3
	c0,0.9-0.4,1.6-1.1,2.2C122.7,19.8,121.6,20,120.1,20z"/>
<path class="st4" d="M129.3,20c-1.1,0-1.9-0.3-2.5-0.9c-0.6-0.6-0.9-1.5-0.9-2.7v-5.8h3.6v5.5c0,0.8,0.4,1.2,1.2,1.2
	c0.3,0,0.6-0.1,0.9-0.2s0.5-0.3,0.7-0.5v-6h3.6v9.1h-3.4l-0.1-0.7c-0.4,0.3-0.8,0.5-1.3,0.6C130.5,20,129.9,20,129.3,20z"/>
<path class="st4" d="M137.6,19.9v-9.1h3.3l0.1,0.7c0.4-0.3,0.8-0.5,1.3-0.7c0.5-0.2,1-0.3,1.6-0.3c0.6,0,1.1,0.1,1.4,0.2
	c0.3,0.2,0.6,0.4,0.8,0.7c0.4-0.3,0.9-0.5,1.4-0.7c0.5-0.2,1.1-0.3,1.8-0.3c1.1,0,1.8,0.3,2.3,0.8c0.5,0.6,0.8,1.4,0.8,2.5v5.9h-3.6
	v-5.5c0-0.4-0.1-0.7-0.2-0.9c-0.2-0.2-0.4-0.3-0.8-0.3c-0.5,0-0.9,0.2-1.2,0.5c0,0.2,0,0.3,0,0.5c0,0.1,0,0.3,0,0.5v5.1h-3.3v-5.6
	c0-0.4-0.1-0.6-0.2-0.8c-0.1-0.2-0.4-0.3-0.7-0.3c-0.2,0-0.5,0.1-0.7,0.2s-0.4,0.3-0.6,0.5v6H137.6z"/>
<path class="st4" d="M96.7,35.5c-1,0-1.8-0.2-2.4-0.5c-0.6-0.4-1.1-0.9-1.4-1.5c-0.3-0.7-0.5-1.4-0.5-2.3c0-1,0.1-1.8,0.4-2.5
	c0.3-0.7,0.8-1.3,1.4-1.7c0.6-0.4,1.4-0.6,2.4-0.6c0.5,0,1,0,1.4,0.1c0.4,0.1,0.8,0.2,1.2,0.3v1c-0.4-0.1-0.8-0.2-1.2-0.3
	c-0.4-0.1-0.9-0.1-1.3-0.1c-0.8,0-1.4,0.2-1.9,0.5c-0.5,0.3-0.8,0.7-1,1.3c-0.2,0.6-0.3,1.3-0.3,2.1c0,1.1,0.3,2,0.8,2.6
	c0.5,0.6,1.4,0.9,2.5,0.9c0.4,0,0.8,0,1.3-0.1c0.4-0.1,0.8-0.2,1.2-0.3v1c-0.4,0.1-0.8,0.2-1.2,0.3C97.7,35.5,97.2,35.5,96.7,35.5z"
	/>
<path class="st4" d="M104,35.5c-1.1,0-2-0.3-2.5-0.9c-0.5-0.6-0.8-1.4-0.8-2.6c0-1.1,0.3-1.9,0.8-2.5c0.5-0.6,1.4-0.9,2.5-0.9
	c1.1,0,2,0.3,2.5,0.9c0.5,0.6,0.8,1.4,0.8,2.5c0,1.1-0.3,2-0.8,2.6C106,35.3,105.1,35.5,104,35.5z M104,34.6c0.8,0,1.3-0.2,1.7-0.6
	c0.3-0.4,0.5-1,0.5-1.9c0-0.9-0.2-1.5-0.5-1.9c-0.3-0.4-0.9-0.6-1.7-0.6c-0.8,0-1.3,0.2-1.7,0.6c-0.3,0.4-0.5,1-0.5,1.9
	c0,0.9,0.2,1.5,0.5,1.9C102.6,34.4,103.2,34.6,104,34.6z"/>
<path class="st4" d="M108.6,35.4v-1h1v1H108.6z"/>
</svg>
