<?xml version="1.0" encoding="utf-8"?>
<!-- Generator: Adobe Illustrator 24.3.0, SVG Export Plug-In . SVG Version: 6.00 Build 0)  -->
<svg version="1.1" id="disabled" xmlns="http://www.w3.org/2000/svg" xmlns:xlink="http://www.w3.org/1999/xlink" x="0px" y="0px"
	 viewBox="0 0 32 32" style="enable-background:new 0 0 32 32;" xml:space="preserve">
<style type="text/css">
	.st0{fill:#ABB4C4;}
	.st1{fill:#FFFFFF;}
</style>
<path class="st0" d="M26,32H6c-3.3,0-6-2.7-6-6V6c0-3.3,2.7-6,6-6h20c3.3,0,6,2.7,6,6v20C32,29.3,29.3,32,26,32z"/>
<path class="st1" d="M25,14.5c-2.5-0.6-3.1-1-3.1-1.9v-0.1c0-0.7,0.6-1.2,1.9-1.2c1.4,0.1,2.7,0.6,3.8,1.4l1.7-2.4
	c-1.5-1.2-3.4-1.9-5.4-1.9c-3,0-5.1,1.7-5.1,4.4v0.1c0,2.9,1.9,3.7,4.8,4.4c2.4,0.6,2.9,1,2.9,1.9v0.1c0,0.8-0.8,1.4-2.1,1.4
	c-1.7,0-3.2-0.6-4.3-1.8L20,18.8c0,0-0.2-0.2-0.3-0.3l0,0l0,0c-0.1-0.1-0.1-0.1-0.1-0.1l0,0c-0.3,1-0.7,1.9-1.3,2.8l0,0l0.3,0.3l0,0
	l0,0c1.7,1.3,3.7,2,5.8,2.1c3.1,0,5.3-1.6,5.3-4.5V19C29.7,16.3,28,15.3,25,14.5z"/>
<path class="st1" d="M20.6,25.7l-7.8-6.3C11,21,8.1,20.9,6.4,18.9c-1.7-1.9-1.5-4.8,0.4-6.4s4.8-1.5,6.4,0.4c0.8,0.8,1.2,1.9,1.2,3
	c0,0.8-0.2,1.7-0.7,2.3l2.3,1.9c2.3-3.4,1.4-8.1-1.9-10.4S6,8.4,3.7,11.8s-1.4,8.1,1.9,10.4c2.3,1.5,5.2,1.7,7.6,0.5l7.2,3.4
	L20.6,25.7z"/>
</svg>
