<?xml version="1.0" encoding="utf-8"?>
<!-- Generator: Adobe Illustrator 24.3.0, SVG Export Plug-In . SVG Version: 6.00 Build 0)  -->
<svg version="1.1" id="color" xmlns="http://www.w3.org/2000/svg" xmlns:xlink="http://www.w3.org/1999/xlink" x="0px" y="0px"
	 viewBox="0 0 32 32" style="enable-background:new 0 0 32 32;" xml:space="preserve">
<style type="text/css">
	.st0{fill:#FF4560;}
	.st1{fill:#FFFFFF;}
</style>
<path class="st0" d="M26,32H6c-3.3,0-6-2.7-6-6V6c0-3.3,2.7-6,6-6h20c3.3,0,6,2.7,6,6v20C32,29.3,29.3,32,26,32z"/>
<path id="Fill-21_1_" class="st1" d="M20.6,8.5c-1.3,0-3,0-4.7,0v15h4.7V8.5z"/>
<path id="Fill-22_1_" class="st1" d="M8.1,13.6c-1.7,0-3.3,0-4.7,0v9.9h4.7V13.6z"/>
<polygon id="Fill-23_1_" class="st1" points="9.6,23.5 14.3,23.5 14.3,11 9.6,11 "/>
<path id="Fill-24_1_" class="st1" d="M28.6,13c0-2.5-2-4.5-4.4-4.5l0,0h-2v9h2l0,0C26.6,17.5,28.6,15.5,28.6,13"/>
<path id="Fill-25_1_" class="st1" d="M28.6,23.5c0-2.4-2-4.4-4.4-4.5l0,0h-2v4.5H28.6z"/>
</svg>
