<?xml version="1.0" encoding="utf-8"?>
<!-- Generator: Adobe Illustrator 24.3.0, SVG Export Plug-In . SVG Version: 6.00 Build 0)  -->
<svg version="1.1" id="disabled" xmlns="http://www.w3.org/2000/svg" xmlns:xlink="http://www.w3.org/1999/xlink" x="0px" y="0px"
	 viewBox="0 0 32 32" style="enable-background:new 0 0 32 32;" xml:space="preserve">
<style type="text/css">
	.st0{fill:#ABB4C4;}
	.st1{fill:#FFFFFF;}
</style>
<path class="st0" d="M26,32H6c-3.3,0-6-2.7-6-6V6c0-3.3,2.7-6,6-6h20c3.3,0,6,2.7,6,6v20C32,29.3,29.3,32,26,32z"/>
<path class="st1" d="M8.4,23.5H4.6V11.4H2.4V8.5h8.3v2.9H8.4V23.5z"/>
<path class="st1" d="M15.6,17.1v6.4H12v-15h3.6v5.7h1.9V8.5h3.6v15h-3.6v-6.4H15.6z"/>
<path class="st1" d="M29.6,11.4h-3.4v3.2H29v2.6h-2.8v3.2h3.4v3.2h-7.1v-15h7.1V11.4z"/>
</svg>
