<svg id="Capa_1" enable-background="new 0 0 512 512" height="512" viewBox="0 0 512 512" width="512" xmlns="http://www.w3.org/2000/svg"><g><g><g><path d="m443.815 375.506v-24.22c0-3.772 3.058-6.829 6.829-6.829h47.028c4.769 0 8.069 4.764 6.394 9.228l-7.286 19.422c-.58 1.547-.58 3.251 0 4.798l7.286 19.422c1.675 4.465-1.625 9.228-6.394 9.228h-47.028c-3.772 0-6.829-3.058-6.829-6.829z" fill="#fec165"/></g><g><path d="m68.185 375.506v-24.22c0-3.772-3.058-6.829-6.829-6.829h-47.029c-4.769 0-8.069 4.764-6.394 9.228l7.286 19.422c.58 1.547.58 3.251 0 4.798l-7.286 19.422c-1.675 4.465 1.625 9.228 6.394 9.228h47.028c3.772 0 6.829-3.058 6.829-6.829v-24.22z" fill="#fec165"/></g></g><g><g><path d="m504.068 397.325c1.67 4.469-1.63 9.228-6.398 9.228h-23.524c4.769 0 8.068-4.759 6.398-9.228l-7.288-19.415c-.58-1.549-.58-3.259 0-4.799l7.288-19.425c1.67-4.469-1.63-9.228-6.398-9.228h23.524c4.769 0 8.068 4.759 6.398 9.228l-7.288 19.425c-.58 1.539-.58 3.249 0 4.799z" fill="#fdb441"/></g><g><path d="m68.187 351.286v48.438c0 3.769-3.059 6.828-6.828 6.828h-23.525c3.769 0 6.828-3.059 6.828-6.828v-48.438c0-3.769-3.059-6.828-6.828-6.828h23.524c3.77 0 6.829 3.059 6.829 6.828z" fill="#fdb441"/></g></g><g><path d="m211.868 21.628c-37.035 5.363-89.357 14.338-124.404 26.227-4.007 1.359-6.688 5.131-6.688 9.362v269.055c0 42.156 19.992 82.42 55.271 109.872 27.608 21.483 66.736 43.772 119.953 57.408 53.217-13.636 92.346-35.925 119.953-57.408 35.279-27.453 55.271-67.716 55.271-109.872v-269.055c0-4.231-2.681-8.003-6.688-9.362-35.047-11.889-87.37-20.864-124.404-26.227-29.274-4.24-58.99-4.24-88.264 0z" fill="#c8effe"/></g><g><path d="m431.226 57.219v269.053c0 42.159-19.995 82.419-55.276 109.872-20.305 15.806-46.848 32.042-80.65 44.959 24.484-11.647 44.539-24.964 60.655-37.991 35.281-28.513 55.276-70.332 55.276-114.121v-279.47c0-2.399-.8-4.659-2.179-6.438 5.439 1.53 10.627 3.119 15.486 4.769 4.009 1.359 6.688 5.139 6.688 9.367z" fill="#99e6fc"/></g><g><path d="m220.087 57.626c-31.081 4.501-75.394 12.128-103.872 22.258-1.683.599-2.806 2.186-2.806 3.972v236.98c0 34.305 16.269 67.07 44.978 89.41 22.466 17.482 54.307 35.62 97.613 46.716 43.306-11.096 75.147-29.234 97.613-46.716 28.709-22.34 44.978-55.105 44.978-89.41v-236.98c0-1.786-1.123-3.374-2.806-3.972-28.478-10.13-72.791-17.757-103.872-22.258-23.822-3.45-48.004-3.45-71.826 0z" fill="#f9f7f8"/></g><g><path d="m398.594 83.853v236.981c0 34.311-16.276 67.073-44.979 89.408-19.465 15.146-45.969 30.792-80.87 41.909 25.254-10.567 45.319-23.464 60.875-36.041 28.703-23.184 44.979-57.196 44.979-92.807v-245.998c0-1.19-.47-2.299-1.25-3.099 6.618 1.79 12.837 3.689 18.435 5.679 1.681.599 2.81 2.188 2.81 3.968z" fill="#efedef"/></g><g><path d="m459.717 368.17h-407.434c-3.397 0-6.152-2.754-6.152-6.152v-76.498c0-3.397 2.754-6.152 6.152-6.152h407.434c3.397 0 6.152 2.754 6.152 6.152v76.499c-.001 3.397-2.755 6.151-6.152 6.151z" fill="#fedba6"/></g><g><path d="m465.868 285.523v76.491c0 3.399-2.749 6.158-6.148 6.158h-19.995c3.399 0 6.148-2.759 6.148-6.158v-76.491c0-3.399-2.749-6.158-6.148-6.158h19.995c3.398-.001 6.148 2.758 6.148 6.158z" fill="#fece85"/></g><g><g><path d="m249.855 159.416h-64.152v53.436c0 3.506 2.281 6.601 5.63 7.635 5.484 1.693 13.15 4.057 14.246 4.378 30.88 9.034 73.985 9.411 104.074-5.515 2.69-1.334 4.354-4.118 4.354-7.121v-52.813z" fill="#8d9ca8"/></g><g><path d="m314.006 159.414v52.817c0 2.999-1.66 5.789-4.349 7.118-5.239 2.599-10.867 4.729-16.756 6.438.71-1.21 1.11-2.609 1.11-4.079v-62.295h19.995z" fill="#7a8c98"/></g><g><path d="m245.992 100.73-102.804 43.494c-1.565.662-1.565 2.88 0 3.542l102.804 43.494c2.47 1.045 5.257 1.045 7.727 0l102.804-43.494c1.565-.662 1.565-2.88 0-3.542l-102.804-43.494c-2.47-1.045-5.258-1.045-7.727 0z" fill="#596c76"/></g><g><path d="m356.525 147.767-102.804 43.489c-2.469 1.05-5.259 1.05-7.728 0l-15.516-6.568 87.288-36.921c1.56-.66 1.56-2.879 0-3.539l-87.288-36.931 15.516-6.568c2.469-1.04 5.259-1.04 7.728 0l102.804 43.499c1.56.66 1.56 2.88 0 3.539z" fill="#465a61"/></g><g><path d="m357.697 234.46c-6.787 0-12.29-5.502-12.29-12.289v-14.575c0-6.787 5.502-12.289 12.289-12.289 6.787 0 12.289 5.502 12.289 12.289v14.575c.001 6.787-5.501 12.289-12.288 12.289z" fill="#596c76"/></g><g><path d="m222.951 337.304c-.014 0-.029 0-.043 0-2.421.014-4.958.024-7.215.03v-34.634c0-4.142-3.357-7.498-7.498-7.498s-7.498 3.357-7.498 7.498v42.102c0 3.65 2.63 6.771 6.228 7.39.536.092.859.147 5.681.147 2.285 0 5.58-.013 10.386-.039 4.141-.023 7.479-3.4 7.456-7.54-.023-4.127-3.375-7.456-7.497-7.456z"/><path d="m271.745 337.304c-.014 0-.029 0-.043 0-2.421.014-4.958.024-7.215.03v-34.634c0-4.142-3.357-7.498-7.498-7.498s-7.498 3.357-7.498 7.498v42.102c0 3.65 2.63 6.771 6.228 7.39.536.092.859.147 5.681.147 2.285 0 5.58-.013 10.386-.039 4.141-.023 7.479-3.4 7.456-7.54-.023-4.127-3.375-7.456-7.497-7.456z"/><path d="m319.508 310.583c4.141 0 7.498-3.357 7.498-7.498 0-4.142-3.357-7.498-7.498-7.498h-17.593c-4.141 0-7.498 3.357-7.498 7.498v41.752c0 4.142 3.357 7.498 7.498 7.498h17.593c4.141 0 7.498-3.357 7.498-7.498s-3.357-7.498-7.498-7.498h-10.095v-5.879h8.798c4.141 0 7.498-3.357 7.498-7.498s-3.357-7.498-7.498-7.498h-8.798v-5.88h10.095z"/><path d="m434.704 310.583c4.141 0 7.498-3.357 7.498-7.498 0-4.142-3.357-7.498-7.498-7.498h-17.593c-4.141 0-7.498 3.357-7.498 7.498v41.752c0 4.142 3.357 7.498 7.498 7.498h17.593c4.141 0 7.498-3.357 7.498-7.498s-3.357-7.498-7.498-7.498h-10.094v-5.879h8.797c4.141 0 7.498-3.357 7.498-7.498s-3.357-7.498-7.498-7.498h-8.797v-5.88h10.094z"/><path d="m387.977 316.271h-12.605c-4.141 0-7.498 3.357-7.498 7.498s3.357 7.498 7.498 7.498h3.638c-1.383 3.162-4.059 6.072-9.22 6.072-7.483 0-13.57-6.087-13.57-13.57s6.088-13.571 13.57-13.571c2.72 0 5.342.8 7.582 2.314 3.431 2.317 8.092 1.416 10.41-2.015 2.318-3.432 1.416-8.093-2.015-10.411-4.729-3.195-10.254-4.884-15.977-4.884-15.751 0-28.567 12.815-28.567 28.567 0 15.751 12.815 28.566 28.567 28.566 15.123 0 25.685-11.747 25.685-28.566 0-4.141-3.357-7.498-7.498-7.498z"/><path d="m116.452 333.142c-3.175-2.659-7.904-2.241-10.563.932-.297.354-.615.683-.949.98-1.701 1.516-3.914 2.285-6.576 2.285-7.482 0-13.57-6.087-13.57-13.57s6.088-13.571 13.57-13.571c2.72 0 5.341.8 7.582 2.314 3.431 2.317 8.092 1.416 10.411-2.015 2.318-3.432 1.416-8.093-2.015-10.411-4.729-3.195-10.253-4.884-15.977-4.884-15.752 0-28.567 12.815-28.567 28.567 0 15.751 12.815 28.566 28.567 28.566 6.36 0 12.083-2.103 16.547-6.08.876-.779 1.709-1.637 2.474-2.551 2.658-3.174 2.24-7.903-.934-10.562z"/><path d="m158.944 295.202c-15.752 0-28.567 12.815-28.567 28.567 0 15.751 12.815 28.566 28.567 28.566s28.567-12.815 28.567-28.566c0-15.752-12.815-28.567-28.567-28.567zm0 42.137c-7.483 0-13.57-6.087-13.57-13.57s6.088-13.571 13.57-13.571 13.57 6.088 13.57 13.571-6.087 13.57-13.57 13.57z"/><path d="m503.889 375.506 7.198-19.188c1.65-4.398 1.038-9.331-1.638-13.192-2.676-3.862-7.078-6.167-11.777-6.167h-24.306v-51.439c0-7.526-6.123-13.65-13.649-13.65h-20.994v-139.672c0-4.142-3.357-7.498-7.498-7.498s-7.498 3.357-7.498 7.498v139.672h-17.637v-188.014c0-4.945-3.132-9.38-7.791-11.037-28.859-10.266-73.197-17.964-105.31-22.615-24.544-3.554-49.433-3.554-73.977 0-32.113 4.65-76.451 12.349-105.309 22.615-4.66 1.657-7.792 6.092-7.792 11.037v188.014h-17.637v-214.653c0-1.028.642-1.937 1.598-2.261 34.374-11.66 85.899-20.524 123.07-25.907 28.572-4.138 57.544-4.138 86.116 0 37.171 5.382 88.697 14.246 123.07 25.907.956.324 1.598 1.233 1.598 2.261v39.896c0 4.142 3.357 7.498 7.498 7.498s7.498-3.357 7.498-7.498v-39.896c0-7.457-4.733-14.074-11.777-16.463-35.451-12.026-87.945-21.074-125.738-26.547-29.997-4.343-60.417-4.343-90.414 0-37.793 5.473-90.287 14.521-125.739 26.547-7.044 2.389-11.777 9.006-11.777 16.463v214.653h-20.994c-7.526 0-13.649 6.123-13.649 13.65v51.439h-24.307c-4.699 0-9.101 2.305-11.777 6.167-2.676 3.861-3.288 8.794-1.638 13.193l7.198 19.187-7.198 19.188c-1.65 4.398-1.038 9.331 1.638 13.192 2.676 3.862 7.078 6.167 11.777 6.167h47.028c7.9 0 14.328-6.427 14.328-14.327v-24.058h6.508c9.505 25.574 26.342 48.568 49.25 66.395 34.727 27.023 76.008 46.79 122.697 58.754.611.156 1.236.234 1.861.234s1.251-.078 1.861-.234c46.689-11.964 87.97-31.731 122.697-58.754 22.908-17.826 39.743-40.82 49.248-66.395h6.51v24.058c0 7.9 6.428 14.327 14.328 14.327h47.028c4.699 0 9.101-2.305 11.777-6.167 2.676-3.861 3.288-8.794 1.638-13.193zm-382.982-289.317c27.751-9.479 69.627-16.708 100.254-21.142 23.117-3.349 46.56-3.349 69.677 0 30.627 4.434 72.502 11.663 100.254 21.142v185.681h-270.185zm-60.22 312.868h-45.395l6.948-18.517c1.218-3.246 1.218-6.822 0-10.067l-6.948-18.518h23.341v10.063c0 7.526 6.123 13.649 13.649 13.649h8.405zm310.662 31.17c-32.632 25.392-71.432 44.087-115.349 55.58-43.917-11.494-82.717-30.188-115.349-55.58-19.087-14.853-33.49-33.655-42.317-54.56h21.255c8.122 15.373 19.674 29.198 34.192 40.496 28.413 22.11 62.178 38.279 100.357 48.062.61.156 1.236.234 1.861.234s1.251-.078 1.861-.234c38.18-9.783 71.945-25.953 100.357-48.062 14.519-11.298 26.07-25.123 34.192-40.496h21.256c-8.827 20.905-23.229 39.707-42.316 54.56zm-157.515-69.556c-4.141 0-7.498 3.357-7.498 7.498s3.357 7.498 7.498 7.498h161.254c-6.759 10.73-15.525 20.448-26.08 28.661-26.317 20.478-57.602 35.575-93.009 44.886-35.406-9.311-66.691-24.408-93.009-44.886-10.555-8.214-19.326-17.929-26.085-28.661h42.031c4.141 0 7.498-3.357 7.498-7.498s-3.357-7.498-7.498-7.498h-125.306v-73.805h404.74v73.805zm275.926 19.868 6.947 18.518h-45.395v-23.39h8.404c7.526 0 13.649-6.122 13.649-13.649v-10.063h23.341l-6.947 18.517c-1.217 3.247-1.217 6.822.001 10.067z"/><path d="m365.195 189.293s-.003-43.224-.004-43.249c0-.017.004-.033.004-.05 0-.09-.017-.176-.02-.265-.008-.165-.017-.33-.036-.492-.28-3.482-2.437-6.542-5.694-7.919l-102.806-43.493c-4.311-1.824-9.257-1.824-13.569 0l-102.804 43.494c-3.493 1.478-5.75 4.884-5.75 8.676 0 3.793 2.257 7.198 5.75 8.677l37.939 16.051v42.13c0 6.835 4.387 12.783 10.917 14.8 5.928 1.831 13.229 4.081 14.352 4.41 13.914 4.07 30.984 6.618 48.601 6.618 21.007 0 42.791-3.624 60.909-12.612 5.177-2.567 8.522-7.999 8.522-13.838v-41.508l28.693-12.14v30.711c-7.202 2.961-12.29 10.045-12.29 18.303v14.575c0 10.91 8.877 19.787 19.788 19.787s19.788-8.877 19.788-19.787v-14.575c-.001-8.258-5.088-15.342-12.29-18.304zm-58.686 22.937c0 .194-.095.357-.188.403-29.528 14.647-71.829 12.879-98.633 5.037-.796-.233-5.951-1.818-14.142-4.347-.206-.063-.346-.253-.346-.472v-35.785l49.867 21.097c2.157.913 4.472 1.37 6.787 1.37s4.629-.456 6.785-1.369l49.869-21.099v35.165zm-50.34-58.614h67.28l-72.653 30.738c-.598.253-1.283.252-1.882-.001l-90.667-38.36 90.667-38.359c.599-.253 1.285-.254 1.884 0l73.237 30.984h-67.865c-4.141 0-7.498 3.357-7.498 7.498-.001 4.144 3.356 7.5 7.497 7.5zm106.319 68.555c0 2.642-2.149 4.791-4.791 4.791s-4.792-2.149-4.792-4.791v-14.575c0-2.642 2.149-4.792 4.792-4.792 2.642 0 4.791 2.15 4.791 4.792z"/></g></g></g></svg>