<?xml version="1.0" encoding="utf-8"?>
<!-- Generator: Adobe Illustrator 24.3.0, SVG Export Plug-In . SVG Version: 6.00 Build 0)  -->
<svg version="1.1" id="disabled" xmlns="http://www.w3.org/2000/svg" xmlns:xlink="http://www.w3.org/1999/xlink" x="0px" y="0px"
	 viewBox="0 0 32 32" style="enable-background:new 0 0 32 32;" xml:space="preserve">
<style type="text/css">
	.st0{fill:#ABB4C4;}
	.st1{fill-rule:evenodd;clip-rule:evenodd;fill:#FFFFFF;stroke:#FFFFFF;stroke-miterlimit:10;}
</style>
<path class="st0" d="M26,32H6c-3.3,0-6-2.7-6-6V6c0-3.3,2.7-6,6-6h20c3.3,0,6,2.7,6,6v20C32,29.3,29.3,32,26,32z"/>
<path id="fill_4_" class="st1" d="M27.8,8.8c0,0.1,0,0.2-0.1,0.2c-0.1,0.1-0.1,0.1-0.2,0.1c-0.5,0-0.9,0.2-1.3,0.5
	c-0.3,0.3-0.7,0.8-1,1.6l-5.4,12.1c0,0.1-0.1,0.2-0.3,0.2c-0.1,0-0.2-0.1-0.3-0.2l-3-6.3l-3.5,6.3c-0.1,0.1-0.2,0.2-0.3,0.2
	c-0.2,0-0.3-0.1-0.3-0.2L7,11.2c-0.3-0.7-0.7-1.3-1-1.6C5.6,9.4,5.1,9.2,4.4,9.1c-0.1,0-0.1,0-0.2-0.1c0-0.1-0.1-0.1-0.1-0.2
	c0-0.2,0.1-0.3,0.2-0.3c0.5,0,1,0,1.5,0.1c0.5,0,0.9,0.1,1.3,0.1s0.9,0,1.5-0.1c0.6,0,1.1-0.1,1.6-0.1c0.1,0,0.2,0.1,0.2,0.3
	s0,0.3-0.1,0.3c-0.5,0-0.8,0.2-1.1,0.4C9,9.7,8.9,9.9,8.9,10.3c0,0.2,0.1,0.4,0.2,0.6l4.4,9.8L16,16l-2.3-4.8
	c-0.4-0.9-0.8-1.4-1-1.7C12.4,9.3,12,9.1,11.5,9c0,0-0.1,0-0.1-0.1s-0.1-0.1-0.1-0.2c0-0.2,0-0.3,0.1-0.3c0.5,0,0.9,0,1.3,0.1
	c0.4,0,0.8,0.1,1.2,0.1s0.9,0,1.3-0.1c0.5,0,1-0.1,1.4-0.1c0.1,0,0.2,0.1,0.2,0.3s0,0.3-0.1,0.3c-0.9,0.1-1.4,0.3-1.4,0.8
	c0,0.2,0.1,0.5,0.3,1L17,14l1.5-2.8c0.2-0.4,0.3-0.7,0.3-1c0-0.6-0.5-1-1.4-1c-0.1,0-0.1-0.1-0.1-0.3c0-0.1,0-0.1,0.1-0.2
	c0-0.1,0.1-0.1,0.1-0.1c0.3,0,0.7,0,1.2,0.1c0.5,0,0.9,0.1,1.2,0.1c0.2,0,0.5,0,1-0.1c0.5,0,1-0.1,1.3-0.1c0.1,0,0.1,0.1,0.1,0.3
	s-0.1,0.3-0.2,0.3c-0.5,0.1-1,0.2-1.3,0.5s-0.7,0.8-1.2,1.7l-2,3.7l2.7,5.6l4-9.4c0.1-0.3,0.2-0.7,0.2-0.9c0-0.7-0.5-1.1-1.4-1.1
	C23,9.1,23,9,23,8.8s0.1-0.3,0.2-0.3c0.3,0,0.7,0,1.2,0.1c0.4,0,0.8,0.1,1.1,0.1c0.3,0,0.7,0,1.1-0.1c0.4,0,0.8-0.1,1.1-0.1
	C27.8,8.5,27.8,8.6,27.8,8.8z"/>
</svg>
